<svg width="24" height="24" viewBox="0 0 24 24" fill="none" xmlns="http://www.w3.org/2000/svg">
<g filter="url(#filter0_d_2_13768)">
<path d="M22.9999 6.73001C22.9799 6.73001 22.9499 6.73001 22.9199 6.73001C17.6299 6.20001 12.3499 6.00001 7.11992 6.53001L5.07992 6.73001C4.65992 6.77001 4.28992 6.47001 4.24992 6.05001C4.20992 5.63001 4.50992 5.27001 4.91992 5.23001L6.95992 5.03001C12.2799 4.49001 17.6699 4.70001 23.0699 5.23001C23.4799 5.27001 23.7799 5.64001 23.7399 6.05001C23.7099 6.44001 23.3799 6.73001 22.9999 6.73001Z" fill="#FF4949"/>
<path d="M10.5 5.72C10.46 5.72 10.42 5.72 10.37 5.71C9.97001 5.64 9.69001 5.25 9.76001 4.85L9.98001 3.54C10.14 2.58 10.36 1.25 12.69 1.25H15.31C17.65 1.25 17.87 2.63 18.02 3.55L18.24 4.85C18.31 5.26 18.03 5.65 17.63 5.71C17.22 5.78 16.83 5.5 16.77 5.1L16.55 3.8C16.41 2.93 16.38 2.76 15.32 2.76H12.7C11.64 2.76 11.62 2.9 11.47 3.79L11.24 5.09C11.18 5.46 10.86 5.72 10.5 5.72Z" fill="#FF4949"/>
<path d="M17.2099 22.75H10.7899C7.2999 22.75 7.1599 20.82 7.0499 19.26L6.3999 9.19C6.3699 8.78 6.6899 8.42 7.0999 8.39C7.5199 8.37 7.8699 8.68 7.8999 9.09L8.5499 19.16C8.6599 20.68 8.6999 21.25 10.7899 21.25H17.2099C19.3099 21.25 19.3499 20.68 19.4499 19.16L20.0999 9.09C20.1299 8.68 20.4899 8.37 20.8999 8.39C21.3099 8.42 21.6299 8.77 21.5999 9.19L20.9499 19.26C20.8399 20.82 20.6999 22.75 17.2099 22.75Z" fill="#FF4949"/>
<path d="M15.6601 17.25H12.3301C11.9201 17.25 11.5801 16.91 11.5801 16.5C11.5801 16.09 11.9201 15.75 12.3301 15.75H15.6601C16.0701 15.75 16.4101 16.09 16.4101 16.5C16.4101 16.91 16.0701 17.25 15.6601 17.25Z" fill="#FF4949"/>
<path d="M16.5 13.25H11.5C11.09 13.25 10.75 12.91 10.75 12.5C10.75 12.09 11.09 11.75 11.5 11.75H16.5C16.91 11.75 17.25 12.09 17.25 12.5C17.25 12.91 16.91 13.25 16.5 13.25Z" fill="#FF4949"/>
</g>
<defs>
<filter id="filter0_d_2_13768" x="0.246338" y="1.25" width="27.4971" height="29.5" filterUnits="userSpaceOnUse" color-interpolation-filters="sRGB">
<feFlood flood-opacity="0" result="BackgroundImageFix"/>
<feColorMatrix in="SourceAlpha" type="matrix" values="0 0 0 0 0 0 0 0 0 0 0 0 0 0 0 0 0 0 127 0" result="hardAlpha"/>
<feOffset dy="4"/>
<feGaussianBlur stdDeviation="2"/>
<feComposite in2="hardAlpha" operator="out"/>
<feColorMatrix type="matrix" values="0 0 0 0 0 0 0 0 0 0 0 0 0 0 0 0 0 0 0.25 0"/>
<feBlend mode="normal" in2="BackgroundImageFix" result="effect1_dropShadow_2_13768"/>
<feBlend mode="normal" in="SourceGraphic" in2="effect1_dropShadow_2_13768" result="shape"/>
</filter>
</defs>
</svg>
